<svg width="60" height="60" viewBox="0 0 60 60" fill="none" xmlns="http://www.w3.org/2000/svg">
<circle cx="30" cy="30" r="30" fill="#2E2E2E"/>
<path fill-rule="evenodd" clip-rule="evenodd" d="M37.6704 20.0576C37.6704 21.285 38.6677 22.2801 39.8979 22.2801C41.1281 22.2801 42.1254 21.285 42.1254 20.0576C42.1254 18.8301 41.1281 17.835 39.8979 17.835C38.6677 17.835 37.6704 18.8301 37.6704 20.0576ZM23.7986 29.9439C23.7986 26.5341 26.5689 23.77 29.9861 23.77C33.4034 23.77 36.1737 26.5341 36.1737 29.9439C36.1737 33.3535 33.4034 36.1176 29.9861 36.1176C26.5689 36.1176 23.7986 33.3535 23.7986 29.9439ZM29.9837 39.4546C24.7192 39.4546 20.4516 35.1963 20.4516 29.9436C20.4516 24.6908 24.7192 20.4326 29.9837 20.4326C35.2481 20.4326 39.5158 24.6908 39.5158 29.9436C39.5158 35.1963 35.2481 39.4546 29.9837 39.4546ZM45.0504 14.964C44.3035 14.2171 43.5924 13.7545 42.5961 13.3673C41.8438 13.0749 40.7136 12.7272 38.6323 12.6322C36.3815 12.5295 35.7063 12.5078 30.0067 12.5078C24.307 12.5078 23.6319 12.5295 21.381 12.6322C19.2998 12.7272 18.1695 13.0749 17.4173 13.3673C16.4209 13.7545 15.7099 14.2171 14.9629 14.964C14.216 15.711 13.7534 16.4221 13.3661 17.4184C13.0738 18.1706 12.7261 19.301 12.6311 21.3821C12.5284 23.633 12.5067 24.3081 12.5067 30.0078C12.5067 35.7075 12.5284 36.3826 12.6311 38.6335C12.7261 40.7147 13.0738 41.845 13.3661 42.5972C13.7534 43.5935 14.216 44.3046 14.9629 45.0516C15.7099 45.7986 16.4209 46.2612 17.4173 46.6484C18.1695 46.9407 19.2998 47.2884 21.381 47.3834C23.6316 47.4861 24.3066 47.5078 30.0067 47.5078C35.7067 47.5078 36.3818 47.4861 38.6323 47.3834C40.7136 47.2884 41.8438 46.9407 42.5961 46.6484C43.5924 46.2612 44.3035 45.7986 45.0505 45.0515C45.7974 44.3046 46.2601 43.5935 46.6473 42.5972C46.9396 41.845 47.2873 40.7147 47.3823 38.6335C47.485 36.3826 47.5067 35.7075 47.5067 30.0078C47.5067 24.3081 47.485 23.633 47.3823 21.3821C47.2873 19.301 46.9396 18.1706 46.6473 17.4184C46.2601 16.4221 45.7974 15.711 45.0504 14.964Z" fill="#FCFBF7"/>
</svg>
