<svg width="48" height="48" viewBox="0 0 48 48" fill="none" xmlns="http://www.w3.org/2000/svg">
<circle cx="24" cy="24" r="24" fill="#FCFBF7"/>
<path fill-rule="evenodd" clip-rule="evenodd" d="M30.1304 16.04C30.1304 17.022 30.9282 17.8181 31.9123 17.8181C32.8965 17.8181 33.6943 17.022 33.6943 16.04C33.6943 15.058 32.8965 14.262 31.9123 14.262C30.9282 14.262 30.1304 15.058 30.1304 16.04ZM19.0345 23.9493C19.0345 21.2215 21.2507 19.0103 23.9845 19.0103C26.7183 19.0103 28.9346 21.2215 28.9346 23.9493C28.9346 26.6771 26.7183 28.8883 23.9845 28.8883C21.2507 28.8883 19.0345 26.6771 19.0345 23.9493ZM23.9807 31.5577C19.7692 31.5577 16.355 28.1511 16.355 23.9488C16.355 19.7466 19.7692 16.3401 23.9807 16.3401C28.1923 16.3401 31.6064 19.7466 31.6064 23.9488C31.6064 28.1511 28.1923 31.5577 23.9807 31.5577ZM36.035 11.965C35.4375 11.3674 34.8686 10.9973 34.0715 10.6876C33.4697 10.4537 32.5655 10.1755 30.9005 10.0995C29.0998 10.0174 28.5597 10 24 10C19.4402 10 18.9001 10.0174 17.0994 10.0995C15.4345 10.1755 14.5302 10.4537 13.9285 10.6876C13.1314 10.9973 12.5625 11.3674 11.965 11.965C11.3674 12.5625 10.9973 13.1314 10.6875 13.9285C10.4537 14.5302 10.1755 15.4345 10.0995 17.0995C10.0174 18.9001 10 19.4402 10 24C10 28.5598 10.0174 29.0998 10.0995 30.9005C10.1755 32.5655 10.4537 33.4698 10.6875 34.0715C10.9973 34.8686 11.3674 35.4375 11.965 36.035C12.5625 36.6326 13.1314 37.0027 13.9285 37.3124C14.5302 37.5463 15.4345 37.8245 17.0995 37.9005C18.8999 37.9826 19.4399 38 24 38C28.56 38 29.1 37.9826 30.9005 37.9005C32.5655 37.8245 33.4697 37.5463 34.0715 37.3124C34.8686 37.0027 35.4375 36.6326 36.035 36.035C36.6325 35.4375 37.0027 34.8686 37.3124 34.0715C37.5463 33.4698 37.8245 32.5655 37.9005 30.9005C37.9826 29.0998 38 28.5598 38 24C38 19.4402 37.9826 18.9001 37.9005 17.0995C37.8245 15.4345 37.5463 14.5302 37.3124 13.9285C37.0027 13.1314 36.6325 12.5625 36.035 11.965Z" fill="#4F71E7"/>
</svg>
