<svg width="60" height="60" viewBox="0 0 60 60" fill="none" xmlns="http://www.w3.org/2000/svg">
<circle cx="30" cy="30" r="30" fill="#2E2E2E" fill-opacity="0.56"/>
<path fill-rule="evenodd" clip-rule="evenodd" d="M37.6705 20.0576C37.6705 21.285 38.6678 22.2801 39.898 22.2801C41.1282 22.2801 42.1255 21.285 42.1255 20.0576C42.1255 18.8301 41.1282 17.835 39.898 17.835C38.6678 17.835 37.6705 18.8301 37.6705 20.0576ZM23.7987 29.9439C23.7987 26.5341 26.569 23.77 29.9863 23.77C33.4035 23.77 36.1738 26.5341 36.1738 29.9439C36.1738 33.3535 33.4035 36.1176 29.9863 36.1176C26.569 36.1176 23.7987 33.3535 23.7987 29.9439ZM29.9838 39.4546C24.7194 39.4546 20.4517 35.1963 20.4517 29.9436C20.4517 24.6908 24.7194 20.4326 29.9838 20.4326C35.2482 20.4326 39.516 24.6908 39.516 29.9436C39.516 35.1963 35.2482 39.4546 29.9838 39.4546ZM45.0505 14.964C44.3037 14.2171 43.5925 13.7545 42.5962 13.3673C41.8439 13.0749 40.7137 12.7272 38.6324 12.6322C36.3816 12.5295 35.7065 12.5078 30.0068 12.5078C24.3071 12.5078 23.632 12.5295 21.3811 12.6322C19.2999 12.7272 18.1696 13.0749 17.4175 13.3673C16.4211 13.7545 15.71 14.2171 14.963 14.964C14.2161 15.711 13.7535 16.4221 13.3662 17.4184C13.0739 18.1706 12.7262 19.301 12.6313 21.3821C12.5286 23.633 12.5068 24.3081 12.5068 30.0078C12.5068 35.7075 12.5286 36.3826 12.6313 38.6335C12.7262 40.7147 13.0739 41.845 13.3662 42.5972C13.7535 43.5935 14.2161 44.3046 14.963 45.0516C15.71 45.7986 16.4211 46.2612 17.4175 46.6484C18.1696 46.9407 19.2999 47.2884 21.3812 47.3834C23.6317 47.4861 24.3067 47.5078 30.0068 47.5078C35.7068 47.5078 36.3819 47.4861 38.6324 47.3834C40.7137 47.2884 41.8439 46.9407 42.5962 46.6484C43.5925 46.2612 44.3037 45.7986 45.0506 45.0515C45.7975 44.3046 46.2602 43.5935 46.6474 42.5972C46.9397 41.845 47.2874 40.7147 47.3824 38.6335C47.4851 36.3826 47.5068 35.7075 47.5068 30.0078C47.5068 24.3081 47.4851 23.633 47.3824 21.3821C47.2874 19.301 46.9397 18.1706 46.6474 17.4184C46.2602 16.4221 45.7975 15.711 45.0505 14.964Z" fill="#FCFBF7"/>
</svg>
