<svg width="22" height="22" viewBox="0 0 22 22" fill="none" xmlns="http://www.w3.org/2000/svg">
<path fill-rule="evenodd" clip-rule="evenodd" d="M22 11C22 17.0751 17.0751 22 11 22C4.92487 22 0 17.0751 0 11C0 4.92487 4.92487 0 11 0C17.0751 0 22 4.92487 22 11ZM11 2.38655C11.4142 2.38655 11.75 2.72234 11.75 3.13655V9.70155L15.9991 7.24873C16.3579 7.04164 16.8165 7.16458 17.0236 7.52332C17.2307 7.88205 17.1078 8.34074 16.749 8.54782L11.3789 11.6478C11.0201 11.8549 10.5614 11.7319 10.3544 11.3732C10.3063 11.29 10.276 11.2014 10.2624 11.1118C10.2542 11.0676 10.25 11.0221 10.25 10.9755V3.13655C10.25 2.72234 10.5858 2.38655 11 2.38655Z" fill="#FCFBF7"/>
</svg>
